# xmcd
#
# Track frame offsets: 
#        150
#        14392
#        26976
#        40953
#        53764
#        65593
#        75426
#        86252
#        98679
#        111812
#        124680
#        136369
#        147230
#        158191
#        170500
#        183078
#        196236
#        209666
#        220921
#        231650
#        243636
#        252441
#        264808
#        277319
#        287906
#        298461
#        312673
#        324007
#        336555
#
# Disc length: 4651 seconds
#
# Revision: 0
# Processed by: cddbd v1.5.2PL0 Copyright (c) Steve Scherf et al.
# Submitted via: ExactAudioCopy v0.95b3
#
DISCID=c512291d
DTITLE=Various Artist - Rough and Rowdy Hillbilly Of The 1930's Vol. 3
DYEAR=2007
DGENRE=Country
TTITLE0=Cliff Carlisle and His Buckeye Boys - A Mean Mama Don't Worry Me
TTITLE1=Callaghan Brothers - Somebody's Been Using That Thing
TTITLE2=Bill Carlisle - Long Legged Daddy Blues
TTITLE3=Bill Carlisle - Rattlesnake Daddy (Version 1)
TTITLE4=Walter Hurdt and His Singing Cowboys - She's Got The Habit
TTITLE5=Walter Hurdt and His Singing Cowboys - Honey, What's The Matter 
TTITLE5=Now
TTITLE6=Walter Hurdt and His Singing Cowboys - Lost Dog
TTITLE7=Walter Hurdt and His Singing Cowboys - No Matter How He Done It
TTITLE8=Shelton Brothers - Deep Elem Blues
TTITLE9=Shelton Brothers - Gonna Raid That Chicken Roast Tonite
TTITLE10=Bill Nettles and His Dixie Blues Boys - Oxford (Miss) Blues
TTITLE11=Bill Nettles and His Dixie Blues Boys - No Daddy Blues
TTITLE12=Bill Nettles and His Dixie Blues Boys - Giving Everything Away
TTITLE13=Al Dexter - Wine, Women And Song (Version 1)
TTITLE14=Billy Casteel With Silver Eagle Sage Bucaroos - Wayne County 
TTITLE14=Blues
TTITLE15=Billy Casteel With Silver Eagle Sage Bucaroos - Hollywood Mam
TTITLE15=a
TTITLE16=Evelyn Hare and Her Swingtime Cowgirls - Triflin' Woman
TTITLE17=Walter Hurdt and His Singing Cowboys - When The Rent Man Comes 
TTITLE17=Around
TTITLE18=Walter Hurdt and His Singing Cowboys - She Can't Be Satisfied
TTITLE19=Walter Hurdt and His Singing Cowboys - Train Special
TTITLE20=Walter Hurdt and His Singing Cowboys - She's Got Rhythm
TTITLE21=Callaghan Brothers - She's Killing Me
TTITLE22=Leon's Lone Star Cowboys - I'm A Do Right Papa
TTITLE23=Bill Nettles and His Dixie Blues Boys - Big Shot Daddy Blues
TTITLE24=Bill Nettles and His Dixie Blues Boys - Turn About And Swing
TTITLE25=Buddy Jones - She's Selling What She Used To Give Away
TTITLE26=Buddy Jones - Easy Rolling Sue
TTITLE27=Sammy And Smitty - Ten Or Eleven Times
TTITLE28=Bill Nettles and His Dixie Blues Boys - Early Morning Blues
EXTD=
EXTT0=
EXTT1=
EXTT2=
EXTT3=
EXTT4=
EXTT5=
EXTT6=
EXTT7=
EXTT8=
EXTT9=
EXTT10=
EXTT11=
EXTT12=
EXTT13=
EXTT14=
EXTT15=
EXTT16=
EXTT17=
EXTT18=
EXTT19=
EXTT20=
EXTT21=
EXTT22=
EXTT23=
EXTT24=
EXTT25=
EXTT26=
EXTT27=
EXTT28=
PLAYORDER=
